PathFileType	4	(X/Y/Z)	Patient4_TMGait_0pt4_02_right_42.trc.trc
DataRate	CameraRate	NumFrames	NumMarkers	Units	OrigDataRate	OrigDataStartFrame	OrigNumFrames
75.268817204301	75.268817204301	4	33	mm	75.268817204301	36	       141
Frame#	Time	Sacral			L.Shoulder			Chest			R.Shoulder			Neck			R.ASIS			L.ASIS			R.Thigh.Superior			R.Thigh.Lateral			R.Thigh.Inferior			R.Patella			L.Thigh.Superior			L.Thigh.Lateral			L.Thigh.Inferior			L.Patella			L.Shank.Superior			L.Shank.Lateral			L.Shank.Inferior			R.Shank.Superior			R.Shank.Lateral			R.Shank.Inferior			R.Heel			R.Midfoot.Superior			R.Midfoot.Lateral			R.Toe			L.Heel			L.Midfoot.Lateral			L.Midfoot.Superior			L.Toe			L.Elbow			L.Wrist			R.Elbow			R.Wrist			
		X1	Y1	Z1	X2	Y2	Z2	X3	Y3	Z3	X4	Y4	Z4	X5	Y5	Z5	X6	Y6	Z6	X7	Y7	Z7	X8	Y8	Z8	X9	Y9	Z9	X10	Y10	Z10	X11	Y11	Z11	X12	Y12	Z12	X13	Y13	Z13	X14	Y14	Z14	X15	Y15	Z15	X16	Y16	Z16	X17	Y17	Z17	X18	Y18	Z18	X19	Y19	Z19	X20	Y20	Z20	X21	Y21	Z21	X22	Y22	Z22	X23	Y23	Z23	X24	Y24	Z24	X25	Y25	Z25	X26	Y26	Z26	X27	Y27	Z27	X28	Y28	Z28	X29	Y29	Z29	X30	Y30	Z30	X31	Y31	Z31	X32	Y32	Z32	X33	Y33	Z33	

36	55.795000000000	870.432187381246	999.428792627606	517.727433447659	1041.003079855188	1436.185687926372	342.987783160538	1137.565953568957	1369.084074367282	508.650015742060	1042.907558125614	1434.957384793626	679.501777249678	1013.539138304674	1495.943250461725	500.558558780638	1101.187948768896	943.980412395719	639.696888863218	1090.492559536896	965.946921402635	363.766572847556	1153.039933465238	745.043928129861	607.876377451388	1078.126618210829	633.213792677635	670.501611401374	1157.326482675183	583.554761744391	589.590444823588	1162.562581870573	494.512117308264	596.962392322466	1135.347774770186	746.278438195259	387.932275671311	1052.440095216853	630.571835435124	317.011649289458	1140.261393175686	548.973075957205	374.292468482740	1136.569019119842	466.594121812062	371.842778429193	1077.427621838148	403.971432053928	364.446970527001	947.310365122949	339.496517606191	311.230435664409	950.290696805431	210.999681165941	369.002085200279	1132.664192312443	405.435690226910	606.878588922078	1062.500420615431	304.300817711259	673.700285819006	1100.753707615586	207.183429556145	611.808667232920	965.931859603463	43.239933984796	591.694844632924	1137.022581903390	97.573250682501	622.416223912114	1050.812994785765	37.260219380254	664.613562354877	1258.483377247792	46.457208675823	648.793756468355	773.038545246692	109.533136347973	401.741331041876	842.758117619798	76.742300106913	326.032078232852	940.519696849653	110.343878642112	351.771916072364	1043.316777042260	35.584543460537	331.999606717207	1051.929145666082	1085.817242548763	218.285734251981	1237.327926743468	899.548885318718	225.658637980659	983.837781689224	1090.600446754557	794.352126069101	1067.358434631617	842.306561258040	789.822432253564	
37	55.808285714286	869.542231108397	999.402592278402	522.065883535406	1038.156633879515	1435.865616220960	345.395090448231	1136.301229454094	1369.419469780237	510.379515858870	1043.057359111611	1435.409543194111	681.920086705683	1012.043388644582	1495.986865062961	503.074916120502	1101.140248372486	944.405317989524	642.569043312340	1088.415124995483	965.675384652695	366.920828325542	1151.542099682779	744.602323627323	611.064486525149	1075.487699063429	632.967644626573	673.061386348487	1154.374606441408	583.094962262407	592.072157681512	1158.695212523153	494.077647991716	598.723821896389	1138.876120815552	748.857555706319	390.993673145392	1060.586912140117	631.297744181850	318.929099532310	1151.042496368674	551.749418621402	375.974335825204	1148.702279911193	468.255706967135	372.698958148503	1087.758703346035	405.538708624487	365.239534511353	955.397972950492	345.436170519087	312.310195030315	954.880413396140	216.489787675665	368.983258075798	1128.689159061736	405.093102523694	608.347420627321	1058.324295099779	303.893401724493	674.737678854807	1096.055418386578	206.950549521120	612.342419759725	960.533968934818	43.248324992762	591.824910151316	1131.728159584626	97.493171652859	622.594238187439	1045.414559574207	37.217862487308	664.754447489890	1253.142941287832	46.171918161520	648.946206532433	774.055054221933	123.559685640580	401.780754541953	841.666483763929	86.466603441062	326.142133221436	941.272711625496	114.296012581654	351.439128080257	1038.454587870213	34.645531866004	332.195602139558	1045.752859165642	1084.244003972960	223.591328945533	1221.428179691253	888.352037443923	227.724905985112	991.814563541235	1090.011769427414	798.966748326268	1086.271611541136	845.801695622835	791.465217198497	
38	55.821571428571	868.510702730302	999.321229755655	526.297279103943	1035.130081980642	1435.382203848855	347.621235953338	1134.955680123246	1369.656200239994	511.880883297504	1043.237410614677	1435.828122353315	684.155933405792	1010.481769912780	1495.935982877273	505.391584209163	1100.964546272819	944.674620095089	645.294372893421	1086.136144901184	965.251899682922	369.985116867952	1149.944542231816	744.093601474900	613.943399906417	1073.040083900783	632.660924757641	675.513007202507	1151.474536369715	582.602827133317	594.315114438624	1154.967048116082	493.577007971273	600.393977304065	1142.205853962742	751.617446623289	393.870310702191	1068.469173097870	632.372370010731	320.737764134615	1161.394234264692	554.994727496675	377.650061915231	1160.555383941750	470.511914107365	373.712489397040	1098.061032466613	407.565327780538	366.134745167641	963.719734064613	351.644156957646	313.422975111166	959.835200251681	222.382981582691	369.191924337467	1124.806975961779	404.675547092187	609.738318218681	1054.183688420524	303.446948406510	675.740981386257	1091.349764938409	206.666228113864	612.844307833986	955.077839257803	43.230570374237	591.939519834859	1126.366670289342	97.381473235043	622.741119169881	1039.954651775614	37.154702011486	664.884947111148	1247.742613637317	45.889295889338	649.066411511474	775.866866425023	138.084084318326	402.077342579281	841.177924378453	96.912360321506	326.430459714594	942.411521693027	118.770031283466	351.365752480077	1033.777859804618	33.661948024627	332.405688788800	1039.332477545867	1082.590169936197	228.698761056025	1204.716531592724	877.679435967160	229.652759128441	999.856995945150	1089.683090246636	803.522026114298	1105.600522398654	850.376136286248	792.794864956537	
39	55.834857142857	867.364782728695	999.201701785120	530.401063468467	1031.999525965228	1434.769549972809	349.670904760849	1133.561921331411	1369.803092486445	513.172548469946	1043.453844294845	1436.233119340697	686.205984769877	1008.894249661143	1495.817588354096	507.500770594969	1100.660227972512	944.798349222005	647.880801323613	1083.730126381148	964.737918659050	372.936692345997	1148.291077602375	743.548072500824	616.462295096020	1070.842532368187	632.310886628672	677.833607724009	1148.671398412447	582.089622045469	596.282897629347	1151.421647627645	493.023180600488	601.940308230729	1145.237959207441	754.545207572716	396.569941116897	1075.907398939476	633.819748279063	322.451496451775	1171.123894121159	558.687212201718	379.315285906503	1171.926594550564	473.335265453635	374.839200627024	1108.122224871918	410.039444434581	367.121402132222	972.053443998917	358.010109561505	314.597841757542	965.043513606613	228.534108227323	369.648486448402	1121.059617454779	404.195309510936	611.025764734590	1050.133004582493	302.980252052489	676.703736994589	1086.678078599758	206.343620400632	613.310576455235	949.603777272028	43.197531630254	592.050147031990	1120.976571976254	97.256676599246	622.865867502433	1034.475645637969	37.083116493866	665.013490915659	1242.321726192030	45.628274800156	649.163989541955	778.430285425140	152.613513926833	402.690241682786	841.338371035242	107.726402059676	326.939068287180	943.946374148337	123.666625003893	351.561368285070	1029.516926988225	32.696809480481	332.591796386898	1032.629119299712	1080.905715337728	233.572419947528	1187.273241914850	867.683396711247	231.468800303083	1007.934770011056	1089.633734636273	807.965002797977	1125.237322843615	856.134080184973	793.737878266561	
